<svg version="1.1" viewBox="0.0 0.0 580.4041994750656 259.03412073490813" fill="none" stroke="none" stroke-linecap="square" stroke-miterlimit="10" xmlns:xlink="http://www.w3.org/1999/xlink" xmlns="http://www.w3.org/2000/svg"><clipPath id="p.0"><path d="m0 0l580.4042 0l0 259.03412l-580.4042 0l0 -259.03412z" clip-rule="nonzero"/></clipPath><g clip-path="url(#p.0)"><path fill="#000000" fill-opacity="0.0" d="m0 0l580.4042 0l0 259.03412l-580.4042 0z" fill-rule="evenodd"/><path fill="#000000" fill-opacity="0.0" d="m0 0l580.4094 0l0 259.02362l-580.4094 0z" fill-rule="evenodd"/><path fill="#d5a6bd" d="m98.97304 176.03244q-15.234375 0 -26.5 -5.5625q-11.265625 -5.578125 -17.28125 -15.8125q-6.015625 -10.234375 -6.015625 -23.8125q0 -18.8125 7.109375 -33.40625q7.109375 -14.59375 19.265625 -22.59375q12.15625 -8.0 27.0 -8.0q13.828125 0 21.0 7.109375q7.171875 7.09375 7.171875 18.75q0 7.8125 -2.765625 12.546875q-2.75 4.734375 -7.859375 4.734375q-3.59375 0 -5.640625 -1.65625q-2.046875 -1.671875 -2.046875 -4.875q0 -1.15625 0.515625 -4.21875q0.765625 -3.84375 0.765625 -6.140625q0 -11.65625 -12.421875 -11.65625q-8.4375 0 -16.125 5.515625q-7.671875 5.5 -12.40625 16.1875q-4.734375 10.6875 -4.734375 25.40625q0 15.359375 8.5625 23.75q8.578125 8.375 25.34375 8.375q8.328125 0 16.828125 -2.109375q8.515625 -2.109375 18.890625 -6.46875q1.921875 -0.765625 3.203125 -0.765625q2.046875 0 3.0625 1.546875q1.03125 1.53125 1.03125 3.953125q0 7.8125 -8.453125 11.515625q-9.078125 3.96875 -18.875 5.828125q-9.796875 1.859375 -18.625 1.859375zm107.01114 -29.1875q1.65625 0 2.609375 1.546875q0.96875 1.53125 0.96875 4.21875q0 5.125 -2.421875 7.9375q-5.890625 6.78125 -12.109375 11.140625q-6.203125 4.34375 -14.140625 4.34375q-6.53125 0 -9.859375 -3.765625q-3.328125 -3.78125 -3.328125 -10.953125q0 -3.578125 1.796875 -12.796875q1.671875 -8.0625 1.671875 -11.140625q0 -2.046875 -1.421875 -2.046875q-1.65625 0 -4.734375 4.296875q-3.0625 4.28125 -6.140625 11.328125q-3.0625 7.03125 -4.984375 14.84375q-2.4375 10.234375 -12.03125 10.234375q-3.84375 0 -5.0625 -2.75q-1.21875 -2.75 -1.21875 -9.921875q0 -4.09375 0.125 -6.53125l0.140625 -10.234375q0 -19.71875 4.03125 -41.09375q4.03125 -21.375 11.890625 -35.890625q7.875 -14.53125 18.890625 -14.53125q5.890625 0 9.53125 5.0625q3.65625 5.046875 3.65625 13.109375q0 12.921875 -7.5625 26.8125q-7.546875 13.890625 -24.578125 32.453125q-0.375 6.65625 -0.375 13.6875q4.21875 -10.875 9.40625 -17.71875q5.1875 -6.859375 10.234375 -9.796875q5.0625 -2.9375 9.28125 -2.9375q8.328125 0 8.328125 8.3125q0 4.984375 -2.828125 18.046875q-2.421875 11.140625 -2.421875 14.71875q0 5.125 3.703125 5.125q2.5625 0 6.078125 -3.140625q3.53125 -3.140625 9.421875 -10.171875q1.53125 -1.796875 3.453125 -1.796875zm-38.015625 -79.09375q-2.3125 0 -5.125 6.59375q-2.8125 6.578125 -5.4375 17.78125q-2.625 11.203125 -4.296875 24.390625q7.9375 -9.34375 13.125 -20.34375q5.1875 -11.015625 5.1875 -19.984375q0 -4.09375 -0.90625 -6.265625q-0.890625 -2.171875 -2.546875 -2.171875zm46.974762 108.28125q-7.9375 0 -12.671875 -5.75q-4.734375 -5.765625 -4.734375 -15.109375q0 -10.25 4.734375 -19.390625q4.734375 -9.15625 12.609375 -14.71875q7.875 -5.578125 16.703125 -5.578125q2.8125 0 3.765625 1.09375q0.96875 1.078125 1.609375 3.90625q2.6875 -0.515625 5.625 -0.515625q6.28125 0 6.28125 4.484375q0 2.6875 -1.921875 12.796875q-2.953125 14.71875 -2.953125 20.484375q0 1.90625 0.953125 3.0625q0.96875 1.15625 2.515625 1.15625q2.421875 0 5.875 -3.140625q3.4687347 -3.140625 9.343735 -10.171875q1.546875 -1.796875 3.46875 -1.796875q1.65625 0 2.609375 1.546875q0.96875 1.53125 0.96875 4.21875q0 5.125 -2.4375 7.9375q-5.25 6.53125 -11.140625 11.015625q-5.8749847 4.46875 -11.374985 4.46875q-4.234375 0 -7.75 -2.875q-3.515625 -2.890625 -5.3125 -7.875q-6.65625 10.75 -16.765625 10.75zm4.609375 -12.921875q2.8125 0 5.375 -3.328125q2.5625 -3.328125 3.703125 -8.84375l4.734375 -23.546875q-5.375 0.125 -9.921875 4.03125q-4.53125 3.90625 -7.21875 10.3125q-2.6875 6.390625 -2.6875 13.5625q0 3.96875 1.59375 5.890625q1.609375 1.921875 4.421875 1.921875zm48.894394 12.921875q-4.859375 0 -6.84375 -5.109375q-1.984375 -5.125 -1.984375 -16.390625q0 -16.640625 4.734375 -31.625q1.140625 -3.703125 3.765625 -5.421875q2.625 -1.734375 7.359375 -1.734375q2.5625 0 3.578125 0.640625q1.03125 0.625 1.03125 2.421875q0 2.046875 -1.921875 9.21875q-1.265625 5.125 -2.046875 8.96875q-0.765625 3.828125 -1.28125 9.46875q4.234375 -11.015625 9.484375 -17.921875q5.25 -6.921875 10.296875 -9.859375q5.0625 -2.9375 9.28125 -2.9375q8.328125 0 8.328125 8.3125q0 4.984375 -2.828125 18.046875q-2.421875 11.140625 -2.421875 14.71875q0 5.125 3.703125 5.125q2.5625 0 6.078125 -3.140625q3.53125 -3.140625 9.40625 -10.171875q1.546875 -1.796875 3.46875 -1.796875q1.65625 0 2.609375 1.546875q0.96875 1.53125 0.96875 4.21875q0 5.125 -2.4375 7.9375q-5.5 6.78125 -11.84375 11.140625q-6.328125 4.34375 -14.390625 4.34375q-6.53125 0 -9.859375 -3.765625q-3.328125 -3.78125 -3.328125 -10.953125q0 -3.578125 1.796875 -12.796875q1.65625 -8.0625 1.65625 -11.140625q0 -2.046875 -1.40625 -2.046875q-1.65625 0 -4.671875 4.296875q-3.0 4.28125 -6.140625 11.328125q-3.140625 7.03125 -5.0625 14.84375q-1.40625 6.015625 -3.265625 8.125q-1.84375 2.109375 -5.8125 2.109375zm111.487976 -29.1875q1.65625 0 2.609375 1.546875q0.96875 1.53125 0.96875 4.21875q0 5.125 -2.421875 7.9375q-5.515625 6.78125 -12.046875 11.140625q-6.515625 4.34375 -14.96875 4.34375q-26.109375 0 -26.109375 -36.734375q0 -5.640625 0.375 -11.390625l-4.984375 0q-3.84375 0 -5.1875 -1.40625q-1.34375 -1.40625 -1.34375 -4.484375q0 -7.171875 5.765625 -7.171875l7.296875 0q2.171875 -14.078125 6.640625 -25.71875q4.484375 -11.65625 10.8125 -18.5625q6.34375 -6.921875 13.640625 -6.921875q5.375 0 8.453125 4.75q3.078125 4.734375 3.078125 11.890625q0 19.84375 -16.640625 34.5625l14.328125 0q2.046875 0 2.9375 0.90625q0.90625 0.890625 0.90625 3.328125q0 8.828125 -14.46875 8.828125l-15.609375 0q-0.25 6.390625 -0.25 9.984375q0 13.3125 3.125 18.6875q3.140625 5.375 9.921875 5.375q5.5 0 9.71875 -3.328125q4.234375 -3.328125 10.0 -9.984375q1.53125 -1.796875 3.453125 -1.796875zm-22.40625 -70.90625q-1.921875 0 -4.296875 4.796875q-2.359375 4.796875 -4.46875 13.3125q-2.109375 8.515625 -3.515625 18.875q7.546875 -6.515625 11.3125 -14.640625q3.78125 -8.140625 3.78125 -14.796875q0 -7.546875 -2.8125 -7.546875zm32.38214 31.359375q-5.375 0 -8.0625 -2.5q-2.6875 -2.5 -2.6875 -6.96875q0 -4.484375 3.515625 -7.484375q3.53125 -3.015625 8.78125 -3.015625q4.734375 0 7.671875 2.3125q2.953125 2.296875 2.953125 6.515625q0 5.125 -3.328125 8.140625q-3.328125 3.0 -8.84375 3.0zm-1.015625 68.734375q-8.328125 0 -12.109375 -5.890625q-3.765625 -5.890625 -3.765625 -15.609375q0 -5.765625 1.46875 -14.78125q1.46875 -9.03125 3.78125 -16.84375q1.15625 -4.09375 3.0625 -5.625q1.921875 -1.53125 6.15625 -1.53125q6.53125 0 6.53125 4.34375q0 3.203125 -2.4375 14.84375q-3.078125 14.078125 -3.078125 19.078125q0 3.84375 1.015625 5.890625q1.03125 2.046875 3.46875 2.046875q2.296875 0 5.75 -3.203125q3.46875 -3.203125 9.21875 -10.109375q1.546875 -1.796875 3.46875 -1.796875q1.65625 0 2.609375 1.546875q0.96875 1.53125 0.96875 4.21875q0 5.125 -2.4375 7.9375q-12.671875 15.484375 -23.671875 15.484375zm64.25366 -29.1875q1.65625 0 2.609375 1.546875q0.96875 1.53125 0.96875 4.21875q0 5.125 -2.421875 7.9375q-5.515625 6.78125 -11.984375 11.140625q-6.453125 4.34375 -14.640625 4.34375q-11.265625 0 -16.703125 -10.234375q-5.4375 -10.25 -5.4375 -26.5q0 -15.625 4.03125 -35.578125q4.03125 -19.96875 11.890625 -34.296875q7.875 -14.34375 18.765625 -14.34375q6.140625 0 9.65625 5.703125q3.515625 5.6875 3.515625 16.3125q0 15.21875 -8.453125 35.328125q-8.4375 20.09375 -22.90625 39.796875q0.90625 5.25 2.953125 7.5q2.046875 2.234375 5.375 2.234375q5.25 0 9.21875 -3.0q3.96875 -3.015625 10.109375 -10.3125q1.53125 -1.796875 3.453125 -1.796875zm-15.75 -79.09375q-2.9375 0 -6.65625 10.625q-3.703125 10.609375 -6.53125 26.359375q-2.8125 15.75 -3.0625 30.203125q9.09375 -14.96875 14.46875 -30.0q5.375 -15.046875 5.375 -27.46875q0 -9.71875 -3.59375 -9.71875zm57.477966 79.09375q1.65625 0 2.609375 1.546875q0.96875 1.53125 0.96875 4.21875q0 5.125 -2.421875 7.9375q-5.515625 6.78125 -11.984375 11.140625q-6.453125 4.34375 -14.640625 4.34375q-11.265625 0 -16.703125 -10.234375q-5.4375 -10.25 -5.4375 -26.5q0 -15.625 4.03125 -35.578125q4.03125 -19.96875 11.890625 -34.296875q7.875 -14.34375 18.765625 -14.34375q6.140625 0 9.65625 5.703125q3.515625 5.6875 3.515625 16.3125q0 15.21875 -8.453125 35.328125q-8.4375 20.09375 -22.90625 39.796875q0.90625 5.25 2.953125 7.5q2.046875 2.234375 5.375 2.234375q5.25 0 9.21875 -3.0q3.96875 -3.015625 10.109375 -10.3125q1.53125 -1.796875 3.453125 -1.796875zm-15.75 -79.09375q-2.9375 0 -6.65625 10.625q-3.703125 10.609375 -6.53125 26.359375q-2.8125 15.75 -3.0625 30.203125q9.09375 -14.96875 14.46875 -30.0q5.375 -15.046875 5.375 -27.46875q0 -9.71875 -3.59375 -9.71875zm53.759277 48.0q2.953125 0 4.09375 0.765625q1.15625 0.765625 1.15625 2.5625q0 3.0625 -3.328125 21.875q-2.9375 18.046875 -3.453125 21.375q-4.734375 32.90625 -13.0625 52.09375q-8.3125 19.203125 -22.140625 19.203125q-6.515625 0 -10.625 -4.03125q-4.09375 -4.03125 -4.09375 -10.5625q0 -6.015625 2.75 -12.28125q2.75 -6.265625 10.234375 -14.40625q7.5 -8.125 21.1875 -18.609375l0.390625 -2.953125q0.890625 -4.734375 2.046875 -13.5625q-2.5625 9.21875 -7.171875 14.015625q-4.609375 4.796875 -9.71875 4.796875q-5.765625 0 -9.421875 -5.3125q-3.640625 -5.3125 -3.640625 -13.25q0 -9.59375 1.28125 -17.59375q1.28125 -8.0 4.21875 -16.96875q1.28125 -3.828125 3.578125 -5.484375q2.3125 -1.671875 7.3125 -1.671875q2.8125 0 3.890625 0.890625q1.09375 0.890625 1.09375 2.6875q0 1.015625 -1.40625 6.90625q-1.28125 4.734375 -2.046875 8.578125q-1.015625 5.25 -1.796875 10.046875q-0.765625 4.796875 -0.765625 7.875q0 4.859375 2.6875 4.859375q1.921875 0 4.796875 -3.828125q2.890625 -3.84375 6.15625 -11.65625q3.265625 -7.8125 6.328125 -19.203125q1.03125 -3.828125 3.140625 -5.484375q2.109375 -1.671875 6.328125 -1.671875zm-35.328125 105.46875q3.203125 0 7.171875 -7.4375q3.96875 -7.421875 7.9375 -24.6875q-9.859375 8.3125 -14.28125 15.15625q-4.40625 6.859375 -4.40625 11.96875q0 2.1875 0.828125 3.59375q0.84375 1.40625 2.75 1.40625z" fill-rule="nonzero"/></g></svg>